<?xml version="1.0" encoding="UTF-8" standalone="no"?>
<!DOCTYPE svg PUBLIC "-//W3C//DTD SVG 1.1//EN" "http://www.w3.org/Graphics/SVG/1.1/DTD/svg11.dtd">
<svg version="1.1" xmlns="http://www.w3.org/2000/svg" xmlns:xlink="http://www.w3.org/1999/xlink" preserveAspectRatio="xMidYMid meet" viewBox="0 0 640 640" width="640" height="640"><defs><path d="M384.4 337.79L387.92 351.97L383.9 365.45L379.12 373.43L376.26 351.36L384.4 337.79Z" id="e4tCHE7tG"></path><path d="M384.97 351.61L384.02 350.35L385.28 350.55L385.79 348.82L386.06 350.66L387.32 350.84L386.23 351.79L386.5 353.63L385.55 352.39L384.46 353.35L384.97 351.61Z" id="d72Nc78h"></path><path d="M380.61 353.38C379.41 355.38 379.53 358.49 380.88 360.27C382.23 362.06 384.3 361.88 385.5 359.88C385.55 359.8 385.6 359.71 385.63 359.64C385.57 359.85 385.07 361.51 385 361.72C383.6 363.52 381.46 363.54 380.03 361.66C378.48 359.61 378.34 356.05 379.73 353.74C380.39 352.64 381.35 351.96 382.34 351.87C382.34 351.87 382.34 351.87 382.34 351.87L382.34 351.87C381.49 352.37 380.91 352.88 380.61 353.38ZM386.33 357.06C386.33 357.13 386.33 357.22 386.33 357.3C386.32 357.31 386.31 357.35 386.29 357.44C386.31 357.27 386.32 357.15 386.33 357.06Z" id="c2fxaHbo3Y"></path><path d="M384.3 316.79L368.4 298.1L371.64 327.04L383.56 334.46L384.3 316.79Z" id="d4OYglhvF0"></path><path d="M408.12 352.12L393.83 332.45L383.56 334.46L387.92 351.97L408.12 352.12Z" id="b3xgQX1zb2"></path><path d="M401.57 303.53L384.3 316.79L383.56 334.46L393.83 332.45L401.57 303.53Z" id="eoocVp229"></path><path d="M375.65 346.65L383.56 334.46L371.64 327.04L354.81 343.91L375.65 346.65Z" id="c5sqmMZG2y"></path><path d="M368.4 298.1L371.64 327.04L378.95 331.59L369.56 299.49L368.4 298.1Z" id="eVZUQKWCc"></path><path d="M380.82 312.7L378.96 313.28L377.46 309.32L377.12 313.83L374.12 314.74L376.91 316.61L376.57 321.12L378.62 317.75L381.4 319.64L379.88 315.71L381.35 313.33L380.82 312.7Z" id="a1FRg5jtXq"></path><path d="M374.68 305.5C373.53 305.66 372.39 306.19 371.32 307.09C370.69 307.63 370.12 308.3 369.61 309.04C369.69 309.71 370.29 315.06 370.36 315.73C370.51 312.48 371.7 309.4 373.72 307.66C374.33 307.12 374.96 306.78 375.59 306.56C375.59 306.56 375.59 306.56 375.59 306.56C375.04 305.93 374.74 305.57 374.68 305.5ZM371.64 327.04C374.49 328.82 376.07 329.8 376.39 330C377.48 329.82 378.57 329.3 379.59 328.43C382.15 326.23 383.62 322.31 383.73 318.22C383.38 321 382.24 323.52 380.47 325.04C377.24 327.82 373.1 326.16 371.25 321.36C371.1 320.98 370.98 320.6 370.86 320.2C370.96 321.12 371.22 323.39 371.64 327.04Z" id="d1EiuO9Dc2"></path><path d="M371.18 340.88L374.57 345.1L373.49 338.71C375.74 336.61 376.99 335.45 377.24 335.21C376.1 335.11 374.05 334.89 372.84 334.76C372.77 334.34 372.41 332.21 371.76 328.38L370.11 334.47L365.69 334.02L369.08 338.25L367.43 344.38L367.43 344.38L371.18 340.88ZM369.79 339.17L370.46 340L369.27 341.08L369.27 341.08L369.79 339.17ZM372.69 339.45L373.03 341.47L371.96 340.14L371.96 340.14L372.69 339.45ZM370.14 337.85L370.68 335.86L372.12 335.99L372.47 338.08L371.25 339.24L371.25 339.24L370.14 337.85ZM368.36 335.65L369.76 335.77L369.43 336.98L369.43 336.98L368.36 335.65ZM373.04 336.1L374.44 336.24L373.26 337.36L373.26 337.36L373.04 336.1ZM371.55 332.65L371.89 334.67L371.89 334.67L371.03 334.58L371.55 332.65Z" id="cP9uORNPV"></path><path d="M398.83 313.58C398.82 313.55 398.8 313.51 398.78 313.47C398.78 313.47 398.78 313.47 398.78 313.47L398.77 313.44L398.74 313.38L398.69 313.28L398.69 313.28L398.64 313.17C398.64 313.17 398.64 313.17 398.64 313.17C398.6 313.11 398.57 313.04 398.53 312.97C398.53 312.97 398.53 312.97 398.53 312.97C398.49 312.9 398.46 312.84 398.42 312.77C398.42 312.77 398.42 312.77 398.42 312.77C398.3 312.55 398.17 312.34 398.03 312.14C398.03 312.13 398.01 312.1 397.98 312.05L397.98 312.05L397.92 311.96L397.92 311.96L397.86 311.87L397.85 311.87L397.79 311.78L397.79 311.76L397.73 311.69L397.73 311.67L397.67 311.6L397.67 311.6L397.61 311.53L397.61 311.53L397.55 311.44L397.55 311.44L397.49 311.35L397.49 311.35L397.43 311.27C397.43 311.27 397.43 311.27 397.43 311.27C397.38 311.22 397.34 311.16 397.29 311.11C397.29 311.11 397.29 311.11 397.29 311.11L397.23 311.04L397.23 311.02L397.17 310.95C397.17 310.95 397.17 310.95 397.17 310.95C397.12 310.89 397.09 310.84 397.04 310.8C397.04 310.8 397.04 310.8 397.04 310.8C396.85 310.59 396.67 310.41 396.49 310.24C396.49 310.24 396.49 310.24 396.48 310.23L396.42 310.17L396.41 310.17L396.35 310.1C396.34 310.1 396.33 310.1 396.33 310.1C396.3 310.05 396.25 310.01 396.19 309.97C396.19 309.97 396.19 309.97 396.19 309.97L396.12 309.9L396.12 309.9L396.04 309.85L395.97 309.79L395.97 309.78L395.9 309.72L395.9 309.72L395.82 309.67L395.81 309.65L395.75 309.6L395.74 309.6L395.67 309.54L395.65 309.54L395.58 309.49L395.57 309.49C395.53 309.45 395.5 309.44 395.5 309.43C395.41 309.38 395.34 309.32 395.25 309.27C395.25 309.27 395.25 309.27 395.25 309.27L395.18 309.22L395.18 309.22C395.13 309.18 395.1 309.17 395.1 309.16C395.02 309.11 394.94 309.07 394.85 309.02C394.85 309.02 394.85 309.02 394.85 309.02L394.78 308.98L394.77 308.98L394.7 308.93L394.68 308.93L394.6 308.89L394.53 308.86C394.5 308.87 394.49 308.87 394.49 308.87C396.32 310.88 397.53 313.87 397.87 317.17C397.87 317.17 397.87 317.17 397.87 317.17C398.45 315.02 398.77 313.82 398.83 313.58ZM394.67 329.28C392.68 331.59 390.04 332.6 387.39 331.66C386.56 331.37 385.78 330.9 385.06 330.31C385.89 331.66 386.92 332.78 388.08 333.54C388.47 333.46 390.38 333.1 393.83 332.45L393.83 332.45C394.34 330.55 394.62 329.49 394.67 329.28ZM390.87 315.8L393.63 316.76L391.02 318.4L391.26 322.59L389.41 319.41L386.81 321.03L388.27 317.43L386.79 314.88L387.24 314.54L389.18 315.22L390.45 312.08L390.64 311.9L390.87 315.8Z" id="d2pswGKVCq"></path><path d="M400 346.4C400 348.49 399.56 350.44 398.81 352.05C398.08 352.04 394.45 352.03 387.92 351.99C387.14 348.9 386.71 347.18 386.63 346.83C386.63 346.69 386.62 346.54 386.62 346.4C386.63 340.92 389.63 336.46 393.31 336.46C397 336.46 400 340.92 400 346.4Z" id="cjRi7BRGx"></path><path d="M398.06 349.39C398.31 347.99 398.21 346.42 397.73 345.03C396.69 342.07 394.22 340.93 392.23 342.5C390.24 344.05 389.48 347.72 390.54 350.66C390.7 351.16 390.92 351.6 391.17 351.97C391.08 351.97 390.42 351.97 390.34 351.97C389.81 351.34 389.35 350.53 389.01 349.58C387.7 345.88 388.66 341.31 391.14 339.36C393.62 337.43 396.69 338.84 398 342.54C398.78 344.78 398.75 347.3 398.06 349.39Z" id="az9TyqULh"></path><path d="M394.3 346.13L396.26 344.6L395.28 347.55L396.87 349.85L394.67 349.38L393.81 351.99L393.65 351.99L393.31 349.09L391.13 348.6L393.08 347.09L392.71 343.84L394.3 346.13Z" id="b77zTbIit"></path><path d="M383.55 334.58L375.65 346.65L376.26 351.36L384.4 337.79L383.55 334.58Z" id="hsAD2biQi"></path><path d="M383.89 365.51L379.85 379.04L379.12 373.43L383.89 365.51Z" id="a4CABaaeV"></path><path d="M413.79 343.26L412.07 343.26L410.34 343.26L410.34 343.26L410.34 317.43L410.34 317.43L413.47 317.43L416.6 317.43L416.6 317.43L420.42 337.96L420.42 337.96L420.42 337.96L424.18 317.43L424.18 317.43L427.31 317.43L430.44 317.43L430.44 317.43L430.44 343.26L430.44 343.26L428.73 343.26L427 343.26L427 343.26L427 319.37L427 319.37L422.4 343.26L420.4 343.26L418.4 343.26L413.79 319.54L413.79 319.54L413.79 343.26L413.79 343.26Z" id="a7oY0Gz56"></path><path d="M443.12 317.43L445.52 317.43L447.94 317.43L454.72 343.26L454.72 343.26L452.69 343.26L450.66 343.26L450.66 343.26L449.35 337.76L449.35 337.76L441.62 337.76L441.62 337.76L440.33 343.26L440.33 343.26L438.33 343.26L436.33 343.26L436.33 343.26L443.12 317.43ZM442.57 333.77L442.57 333.77L448.4 333.77L448.4 333.77L445.46 321.54L445.48 321.54L442.57 333.77Z" id="daiLdMuLP"></path><path d="M462.65 340.37C461.01 338.08 460.2 334.75 460.2 330.36C460.2 326.25 461.01 322.98 462.65 320.55C464.29 318.13 466.48 316.92 469.26 316.92C471.65 316.92 473.47 317.68 474.71 319.14C475.93 320.62 476.55 322.82 476.55 325.71C476.55 325.71 476.55 325.71 476.55 325.71L472.83 325.71C472.83 325.71 472.83 325.71 472.83 325.71C472.81 324.05 472.51 322.82 471.94 322.06C471.37 321.3 470.46 320.93 469.22 320.93C467.54 320.93 466.23 321.76 465.31 323.38C464.38 325.02 463.92 327.35 463.92 330.36C463.92 333.45 464.4 335.79 465.34 337.38C466.3 338.98 467.7 339.78 469.51 339.78C470.46 339.78 471.5 339.58 472.63 339.18C472.63 339.18 472.63 339.18 472.63 339.18L472.63 333.45L472.63 333.45L469.09 333.45L469.09 329.46L476.39 329.46L476.39 342.36C476.39 342.36 476.39 342.36 476.39 342.36C474.23 343.31 472.05 343.78 469.83 343.78C466.69 343.78 464.29 342.65 462.65 340.37Z" id="d4yowB6y4"></path><path d="M483.61 317.43L483.61 317.43L485.5 317.43L487.38 317.43L487.38 317.43L487.38 327.84L487.38 327.84L494.95 327.84L494.95 327.84L494.95 317.43L494.95 317.43L496.83 317.43L498.71 317.43L498.71 317.43L498.71 343.26L498.71 343.26L496.83 343.26L494.95 343.26L494.95 343.26L494.95 331.84L494.95 331.84L487.38 331.84L487.38 331.84L487.38 343.26L487.38 343.26L485.5 343.26L483.61 343.26L483.61 317.43Z" id="hgBpS5bQN"></path><path d="M505.98 317.43L505.98 317.43L507.86 317.43L507.86 317.43C511.13 317.43 512.95 317.43 513.32 317.43C515.45 317.43 517.1 318 518.25 319.14C519.39 320.28 519.98 321.95 519.98 324.12C519.98 326.3 519.37 327.96 518.13 329.1C517.54 329.66 516.8 330.05 515.94 330.32C515.94 330.32 515.94 330.32 515.94 330.32C516.66 330.47 517.25 330.7 517.66 330.99C518.56 331.61 519.05 332.76 519.19 334.42C519.32 336.1 519.47 337.56 519.61 338.84C519.62 338.88 519.67 339.18 519.67 339.22C519.81 340.18 519.93 340.95 520.04 341.56C520.15 342.16 520.28 342.72 520.44 343.24C520.3 343.24 519.64 343.24 518.45 343.24C517.25 343.24 516.59 343.24 516.46 343.24C516.36 342.9 516.29 342.43 516.22 341.84C516.13 341.24 516.06 340.36 515.95 339.22C515.93 338.99 515.77 337.14 515.75 336.91C515.62 335.18 515.38 334.06 515.03 333.52C514.68 333 514 332.72 512.96 332.72C512.75 332.72 511.68 332.72 509.75 332.72L509.75 332.72L509.75 343.24L509.75 343.24L507.87 343.24L505.98 343.24L505.98 343.26L505.98 317.43ZM509.75 328.76C511.15 328.76 511.92 328.76 512.08 328.76C513.43 328.76 514.46 328.45 515.17 327.8C515.89 327.19 516.25 326.27 516.25 325.09C516.25 323.9 515.94 323 515.31 322.37C514.68 321.74 513.78 321.41 512.6 321.41C512.41 321.41 511.46 321.41 509.75 321.41L509.75 321.41L509.75 328.76L509.75 328.76Z" id="a1RGR5Aiq3"></path><path d="M526.36 343.26L526.36 317.43L526.36 317.43L538.39 317.43L538.39 317.43L538.39 319.43L538.39 321.43L538.39 321.43L530.12 321.43L530.12 321.43L530.12 327.84L530.12 327.84L537.9 327.84L537.9 329.84L537.9 331.84L537.9 331.84L530.12 331.84L530.12 331.84L530.12 339.27L530.12 339.27L538.63 339.27L538.63 339.27L538.63 341.28L538.63 343.26L538.63 343.26L526.36 343.26L526.36 343.26Z" id="e2KE3mMO2"></path><path d="M544.99 317.43L544.99 317.43L546.87 317.43L546.87 317.43C549.91 317.43 551.6 317.43 551.94 317.43C553.98 317.43 555.52 317.97 556.56 319.05C557.62 320.11 558.14 321.72 558.14 323.81C558.14 325.9 557.54 327.49 556.33 328.56C555.81 329.04 555.18 329.39 554.44 329.64C554.44 329.64 554.44 329.64 554.44 329.64C555.41 329.95 556.21 330.38 556.86 330.92C558.22 332.09 558.9 333.84 558.9 336.22C558.9 338.55 558.3 340.3 557.11 341.49C555.91 342.67 554.13 343.26 551.81 343.26C551.48 343.26 549.84 343.26 546.88 343.26L546.88 343.26L544.99 343.26L544.99 343.26L544.99 317.43ZM548.76 327.84L548.76 327.84C549.57 327.84 550.02 327.84 550.11 327.84C551.59 327.84 552.68 327.6 553.37 327.08C554.06 326.57 554.41 325.8 554.41 324.73C554.41 323.65 554.12 322.82 553.53 322.26C552.93 321.7 552.06 321.41 550.9 321.41C550.75 321.41 550.04 321.41 548.76 321.41L548.76 321.43L548.76 327.84ZM548.76 339.26L548.76 339.26C550.11 339.26 550.86 339.26 551 339.26C552.38 339.26 553.42 338.95 554.11 338.3C554.81 337.65 555.17 336.71 555.17 335.45C555.17 334.35 554.86 333.48 554.26 332.81C553.65 332.15 552.84 331.82 551.83 331.82C551.63 331.82 550.6 331.82 548.76 331.82L548.76 339.26Z" id="a1gpU4lmhi"></path><path d="M395.84 393.78L395.84 362.71L395.84 362.71L409.59 362.71L409.59 362.71L409.59 365.13L409.59 367.53L409.59 367.53L400.13 367.53L400.13 367.53L400.13 375.25L400.13 375.25L409.02 375.25L409.02 377.65L409.02 380.05L409.02 380.05L400.13 380.05L400.13 380.05L400.13 388.98L400.13 388.98L409.87 388.98L409.87 388.98L409.87 391.4L409.87 393.78L409.87 393.78L395.84 393.78L395.84 393.78Z" id="b4t3lypY"></path><path d="M417.39 393.78L415.43 393.78L413.45 393.78L413.45 393.78L413.45 362.71L413.45 362.71L417.02 362.71L420.61 362.71L420.61 362.71L424.96 387.39L424.96 387.39L424.96 387.39L429.27 362.71L429.27 362.71L432.85 362.71L436.42 362.71L436.42 362.71L436.42 393.78L436.42 393.78L434.46 393.78L432.48 393.78L432.48 393.78L432.48 365.05L432.49 365.05L427.22 393.78L424.94 393.78L422.66 393.78L417.39 365.25L417.39 365.25L417.39 393.78L417.39 393.78Z" id="b2CNJa7pay"></path><path d="M441.03 393.78L441.03 362.71L441.03 362.71L454.79 362.71L454.79 362.71L454.79 365.13L454.79 367.53L454.79 367.53L445.34 367.53L445.34 367.53L445.34 375.25L445.34 375.25L454.23 375.25L454.23 377.65L454.23 380.05L454.23 380.05L445.34 380.05L445.34 380.05L445.34 388.98L445.34 388.98L455.08 388.98L455.08 388.98L455.08 391.4L455.08 393.78L455.08 393.78L441.03 393.78L441.03 393.78Z" id="gnGFlD9r6"></path><path d="M458.71 362.71L458.71 362.71L460.87 362.71L460.87 362.71C464.61 362.71 466.68 362.71 467.1 362.71C469.55 362.71 471.43 363.41 472.74 364.78C474.05 366.17 474.71 368.16 474.71 370.77C474.71 373.41 474 375.39 472.6 376.75C471.92 377.41 471.08 377.9 470.08 378.23C470.08 378.23 470.08 378.23 470.08 378.23C470.92 378.41 471.56 378.69 472.06 379.04C473.08 379.78 473.66 381.17 473.81 383.15C473.95 385.17 474.12 386.94 474.29 388.47C474.3 388.52 474.35 388.9 474.35 388.94C474.5 390.1 474.63 391.02 474.77 391.76C474.89 392.48 475.05 393.16 475.22 393.78C475.06 393.78 474.31 393.78 472.95 393.78C471.58 393.78 470.82 393.78 470.67 393.78C470.57 393.36 470.47 392.8 470.39 392.08C470.3 391.36 470.21 390.31 470.08 388.94C470.06 388.66 469.89 386.44 469.87 386.16C469.71 384.09 469.43 382.74 469.03 382.1C468.63 381.45 467.84 381.13 466.68 381.13C466.43 381.13 465.21 381.13 463 381.13L463 381.13L463 393.78L463 393.78L460.85 393.78L458.71 393.78L458.71 393.78L458.71 362.71ZM463.01 376.33C464.61 376.33 465.5 376.33 465.68 376.33C467.22 376.33 468.41 375.95 469.22 375.19C470.05 374.45 470.46 373.35 470.46 371.95C470.46 370.5 470.1 369.42 469.38 368.68C468.67 367.92 467.63 367.53 466.28 367.53C466.06 367.53 464.98 367.53 463.02 367.53L463.02 367.53L463.02 376.33L463.01 376.33Z" id="a1ub708MV"></path><path d="M480.83 390.3C478.95 387.55 478.02 383.55 478.02 378.26C478.02 373.3 478.95 369.38 480.82 366.46C482.69 363.56 485.21 362.1 488.38 362.1C491.12 362.1 493.18 363 494.59 364.78C495.99 366.57 496.7 369.19 496.7 372.65C496.7 372.65 496.7 372.65 496.7 372.65L492.44 372.65C492.44 372.65 492.44 372.65 492.44 372.65C492.42 370.65 492.08 369.19 491.42 368.27C490.77 367.36 489.74 366.9 488.32 366.9C486.38 366.9 484.88 367.89 483.83 369.85C482.77 371.82 482.25 374.62 482.25 378.26C482.25 381.98 482.78 384.76 483.88 386.69C484.96 388.64 486.55 389.59 488.63 389.59C489.72 389.59 490.91 389.36 492.2 388.85C492.2 388.85 492.2 388.85 492.2 388.85L492.2 381.96L492.2 381.96L488.15 381.96L488.15 377.16L496.49 377.16L496.49 392.68C496.49 392.68 496.49 392.68 496.49 392.68C494.07 393.83 491.56 394.41 489.03 394.41C485.43 394.41 482.7 393.04 480.83 390.3Z" id="demlpu2Ll"></path><path d="M501.02 393.78L501.02 362.71L501.02 362.71L514.77 362.71L514.77 362.71L514.77 365.13L514.77 367.53L514.77 367.53L505.32 367.53L505.32 367.53L505.32 375.25L505.32 375.25L514.21 375.25L514.21 377.65L514.21 380.05L514.21 380.05L505.32 380.05L505.32 380.05L505.32 388.98L505.32 388.98L515.06 388.98L515.06 388.98L515.06 391.4L515.06 393.78L515.06 393.78L501.02 393.78L501.02 393.78Z" id="jdoSxBU1"></path><path d="M522.45 393.78L520.5 393.78L518.52 393.78L518.52 393.78L518.52 362.71L518.52 362.71L521.53 362.71L524.54 362.71L524.54 362.71L532.08 386.15L532.08 386.15L532.08 386.15L532.08 362.71L532.08 362.71L534.06 362.71L536.02 362.71L536.02 362.71L536.02 393.78L533.06 393.78L530.09 393.78L522.45 370.07L522.45 370.07L522.45 370.07L522.45 393.78L522.45 393.78Z" id="dQJ9hvtX"></path><path d="M545.9 367.53L545.9 367.53L539.53 367.53L539.53 367.53L539.53 365.13L539.53 362.71L539.53 362.71L556.57 362.71L556.57 362.71L556.57 365.13L556.57 367.53L556.57 367.53L550.2 367.53L550.2 367.53L550.2 393.78L550.2 393.78L548.05 393.78L545.9 393.78L545.9 367.53Z" id="cGXXHi64"></path><path d="M558.21 351.04C558.21 351.04 558.21 351.04 558.21 351.04C558.21 353.66 558.21 355.11 558.21 355.4C558.21 355.4 558.21 355.4 558.21 355.4C475.35 355.4 429.32 355.4 420.11 355.4C420.11 355.4 420.11 355.4 420.11 355.4C420.11 352.78 420.11 351.33 420.11 351.04C420.11 351.04 420.11 351.04 420.11 351.04C502.97 351.04 549 351.04 558.21 351.04Z" id="ewfTWciwL"></path><path d="M375.59 346.69L393.7 319.77" id="b1dqsmAbJu"></path><path d="M383.58 334.64L375.66 346.58" id="auCJ51n8B"></path><path d="M383.58 334.64L388.02 352.86" id="a1WtLN0Vy3"></path><path d="M383.56 334.55L375.42 347.1" id="a391FsCgr9"></path><path d="M371.64 327.04L354.81 343.89L375.65 346.65L379.84 379.04L387.92 351.97L408.12 352.12L393.82 332.51L401.56 303.53L384.3 316.78L368.4 298.1L371.64 327.04ZM404.35 298.97L395.56 331.93L411.87 354.3L388.87 354.14L379.3 386.18L374.45 348.66L350.63 345.5L370.07 326.01L366.36 292.94L384.47 314.23L384.47 314.23L404.35 298.97Z" id="cz0rJkMQH"></path></defs><g><g><g><use xlink:href="#e4tCHE7tG" opacity="1" fill="#000000" fill-opacity="1"></use><g><use xlink:href="#e4tCHE7tG" opacity="1" fill-opacity="0" stroke="#000000" stroke-width="1" stroke-opacity="0"></use></g></g><g><use xlink:href="#d72Nc78h" opacity="1" fill="#ffffff" fill-opacity="1"></use><g><use xlink:href="#d72Nc78h" opacity="1" fill-opacity="0" stroke="#000000" stroke-width="1" stroke-opacity="0"></use></g></g><g><use xlink:href="#c2fxaHbo3Y" opacity="1" fill="#ffffff" fill-opacity="1"></use><g><use xlink:href="#c2fxaHbo3Y" opacity="1" fill-opacity="0" stroke="#000000" stroke-width="1" stroke-opacity="0"></use></g></g><g><use xlink:href="#d4OYglhvF0" opacity="1" fill="#ffffff" fill-opacity="1"></use><g><use xlink:href="#d4OYglhvF0" opacity="1" fill-opacity="0" stroke="#000000" stroke-width="1" stroke-opacity="0"></use></g></g><g><use xlink:href="#b3xgQX1zb2" opacity="1" fill="#df041c" fill-opacity="1"></use><g><use xlink:href="#b3xgQX1zb2" opacity="1" fill-opacity="0" stroke="#000000" stroke-width="1" stroke-opacity="0"></use></g></g><g><use xlink:href="#eoocVp229" opacity="1" fill="#008f35" fill-opacity="1"></use><g><use xlink:href="#eoocVp229" opacity="1" fill-opacity="0" stroke="#000000" stroke-width="1" stroke-opacity="0"></use></g></g><g><use xlink:href="#c5sqmMZG2y" opacity="1" fill="#df041c" fill-opacity="1"></use><g><use xlink:href="#c5sqmMZG2y" opacity="1" fill-opacity="0" stroke="#000000" stroke-width="1" stroke-opacity="0"></use></g></g><g><use xlink:href="#eVZUQKWCc" opacity="1" fill="#008f35" fill-opacity="1"></use><g><use xlink:href="#eVZUQKWCc" opacity="1" fill-opacity="0" stroke="#000000" stroke-width="1" stroke-opacity="0"></use></g></g><g><use xlink:href="#a1FRg5jtXq" opacity="1" fill="#df041c" fill-opacity="1"></use><g><use xlink:href="#a1FRg5jtXq" opacity="1" fill-opacity="0" stroke="#000000" stroke-width="1" stroke-opacity="0"></use></g></g><g><use xlink:href="#d1EiuO9Dc2" opacity="1" fill="#df041c" fill-opacity="1"></use><g><use xlink:href="#d1EiuO9Dc2" opacity="1" fill-opacity="0" stroke="#000000" stroke-width="1" stroke-opacity="0"></use></g></g><g><use xlink:href="#cP9uORNPV" opacity="1" fill="#008f35" fill-opacity="1"></use><g><use xlink:href="#cP9uORNPV" opacity="1" fill-opacity="0" stroke="#000000" stroke-width="1" stroke-opacity="0"></use></g></g><g><use xlink:href="#d2pswGKVCq" opacity="1" fill="#fce917" fill-opacity="1"></use><g><use xlink:href="#d2pswGKVCq" opacity="1" fill-opacity="0" stroke="#000000" stroke-width="1" stroke-opacity="0"></use></g></g><g><use xlink:href="#cjRi7BRGx" opacity="1" fill="#ffffff" fill-opacity="1"></use><g><use xlink:href="#cjRi7BRGx" opacity="1" fill-opacity="0" stroke="#000000" stroke-width="1" stroke-opacity="0"></use></g></g><g><use xlink:href="#az9TyqULh" opacity="1" fill="#e0141c" fill-opacity="1"></use><g><use xlink:href="#az9TyqULh" opacity="1" fill-opacity="0" stroke="#000000" stroke-width="1" stroke-opacity="0"></use></g></g><g><use xlink:href="#b77zTbIit" opacity="1" fill="#e0141c" fill-opacity="1"></use><g><use xlink:href="#b77zTbIit" opacity="1" fill-opacity="0" stroke="#000000" stroke-width="1" stroke-opacity="0"></use></g></g><g><use xlink:href="#hsAD2biQi" opacity="1" fill="#df041c" fill-opacity="1"></use><g><use xlink:href="#hsAD2biQi" opacity="1" fill-opacity="0" stroke="#000000" stroke-width="1" stroke-opacity="0"></use></g></g><g><use xlink:href="#a4CABaaeV" opacity="1" fill="#008f35" fill-opacity="1"></use><g><use xlink:href="#a4CABaaeV" opacity="1" fill-opacity="0" stroke="#000000" stroke-width="1" stroke-opacity="0"></use></g></g><g><use xlink:href="#a7oY0Gz56" opacity="1" fill="#1e8b2e" fill-opacity="1"></use><g><use xlink:href="#a7oY0Gz56" opacity="1" fill-opacity="0" stroke="#000000" stroke-width="1" stroke-opacity="0"></use></g></g><g><use xlink:href="#daiLdMuLP" opacity="1" fill="#1e8b2e" fill-opacity="1"></use><g><use xlink:href="#daiLdMuLP" opacity="1" fill-opacity="0" stroke="#000000" stroke-width="1" stroke-opacity="0"></use></g></g><g><use xlink:href="#d4yowB6y4" opacity="1" fill="#1e8b2e" fill-opacity="1"></use><g><use xlink:href="#d4yowB6y4" opacity="1" fill-opacity="0" stroke="#000000" stroke-width="1" stroke-opacity="0"></use></g></g><g><use xlink:href="#hgBpS5bQN" opacity="1" fill="#1e8b2e" fill-opacity="1"></use><g><use xlink:href="#hgBpS5bQN" opacity="1" fill-opacity="0" stroke="#000000" stroke-width="1" stroke-opacity="0"></use></g></g><g><use xlink:href="#a1RGR5Aiq3" opacity="1" fill="#1e8b2e" fill-opacity="1"></use><g><use xlink:href="#a1RGR5Aiq3" opacity="1" fill-opacity="0" stroke="#000000" stroke-width="1" stroke-opacity="0"></use></g></g><g><use xlink:href="#e2KE3mMO2" opacity="1" fill="#1e8b2e" fill-opacity="1"></use><g><use xlink:href="#e2KE3mMO2" opacity="1" fill-opacity="0" stroke="#000000" stroke-width="1" stroke-opacity="0"></use></g></g><g><use xlink:href="#a1gpU4lmhi" opacity="1" fill="#1e8b2e" fill-opacity="1"></use><g><use xlink:href="#a1gpU4lmhi" opacity="1" fill-opacity="0" stroke="#000000" stroke-width="1" stroke-opacity="0"></use></g></g><g><use xlink:href="#b4t3lypY" opacity="1" fill="#1e8b2e" fill-opacity="1"></use><g><use xlink:href="#b4t3lypY" opacity="1" fill-opacity="0" stroke="#000000" stroke-width="1" stroke-opacity="0"></use></g></g><g><use xlink:href="#b2CNJa7pay" opacity="1" fill="#1e8b2e" fill-opacity="1"></use><g><use xlink:href="#b2CNJa7pay" opacity="1" fill-opacity="0" stroke="#000000" stroke-width="1" stroke-opacity="0"></use></g></g><g><use xlink:href="#gnGFlD9r6" opacity="1" fill="#1e8b2e" fill-opacity="1"></use><g><use xlink:href="#gnGFlD9r6" opacity="1" fill-opacity="0" stroke="#000000" stroke-width="1" stroke-opacity="0"></use></g></g><g><use xlink:href="#a1ub708MV" opacity="1" fill="#1e8b2e" fill-opacity="1"></use><g><use xlink:href="#a1ub708MV" opacity="1" fill-opacity="0" stroke="#000000" stroke-width="1" stroke-opacity="0"></use></g></g><g><use xlink:href="#demlpu2Ll" opacity="1" fill="#1e8b2e" fill-opacity="1"></use><g><use xlink:href="#demlpu2Ll" opacity="1" fill-opacity="0" stroke="#000000" stroke-width="1" stroke-opacity="0"></use></g></g><g><use xlink:href="#jdoSxBU1" opacity="1" fill="#1e8b2e" fill-opacity="1"></use><g><use xlink:href="#jdoSxBU1" opacity="1" fill-opacity="0" stroke="#000000" stroke-width="1" stroke-opacity="0"></use></g></g><g><use xlink:href="#dQJ9hvtX" opacity="1" fill="#1e8b2e" fill-opacity="1"></use><g><use xlink:href="#dQJ9hvtX" opacity="1" fill-opacity="0" stroke="#000000" stroke-width="1" stroke-opacity="0"></use></g></g><g><use xlink:href="#cGXXHi64" opacity="1" fill="#1e8b2e" fill-opacity="1"></use><g><use xlink:href="#cGXXHi64" opacity="1" fill-opacity="0" stroke="#000000" stroke-width="1" stroke-opacity="0"></use></g></g><g><use xlink:href="#ewfTWciwL" opacity="1" fill="#1e8b2e" fill-opacity="1"></use><g><use xlink:href="#ewfTWciwL" opacity="1" fill-opacity="0" stroke="#000000" stroke-width="1" stroke-opacity="0"></use></g></g><g><use xlink:href="#b1dqsmAbJu" opacity="1" fill="#000000" fill-opacity="0"></use><g><use xlink:href="#b1dqsmAbJu" opacity="1" fill-opacity="0" stroke="#000000" stroke-width="1" stroke-opacity="0"></use></g></g><g><use xlink:href="#auCJ51n8B" opacity="1" fill="#000000" fill-opacity="0"></use><g><use xlink:href="#auCJ51n8B" opacity="1" fill-opacity="0" stroke="#000000" stroke-width="1" stroke-opacity="0"></use></g></g><g><use xlink:href="#a1WtLN0Vy3" opacity="1" fill="#000000" fill-opacity="0"></use><g><use xlink:href="#a1WtLN0Vy3" opacity="1" fill-opacity="0" stroke="#007f33" stroke-width="1" stroke-opacity="1"></use></g></g><g><use xlink:href="#a391FsCgr9" opacity="1" fill="#000000" fill-opacity="0"></use><g><use xlink:href="#a391FsCgr9" opacity="1" fill-opacity="0" stroke="#007f33" stroke-width="1" stroke-opacity="1"></use></g></g><g><use xlink:href="#cz0rJkMQH" opacity="1" fill="#1e8b2e" fill-opacity="1"></use><g><use xlink:href="#cz0rJkMQH" opacity="1" fill-opacity="0" stroke="#000000" stroke-width="1" stroke-opacity="0"></use></g></g></g></g></svg>